<svg width="196" height="80" viewBox="0 0 196 80" fill="none" xmlns="http://www.w3.org/2000/svg">
<path fill-rule="evenodd" clip-rule="evenodd" d="M56.7871 36.129V0C75.8268 1.97465 90.8767 17.0531 92.8476 36.129H56.7871ZM143.076 2.85413e-05C122.479 -0.02437 105.217 15.5969 103.152 36.129H183.001C180.936 15.5969 163.673 -0.02437 143.076 2.85413e-05ZM13.0002 40C12.9349 60.6519 28.5477 77.9703 49.0607 80V2.85413e-05C28.5477 2.02974 12.9349 19.3482 13.0002 40ZM143.076 80.0001C163.663 79.9969 180.909 64.3899 183.001 43.8711H103.152C105.244 64.3899 122.49 79.9969 143.076 80.0001ZM92.8476 80.0001H56.7871V43.8711H92.8476V80.0001Z" fill="#191919"/>
</svg>
